<svg xmlns="http://www.w3.org/2000/svg" xmlns:xlink="http://www.w3.org/1999/xlink" version="1.1" width="256" height="256" viewBox="0 0 256 256" xml:space="preserve">
<g style="stroke: none; stroke-width: 0; stroke-dasharray: none; stroke-linecap: butt; stroke-linejoin: miter; stroke-miterlimit: 10; fill: none; fill-rule: nonzero; opacity: 1;" transform="translate(1.4065934065934016 1.4065934065934016) scale(2.81 2.81)">
	<rect x="23.26" y="27.82" rx="0" ry="0" width="38.84" height="29.07" style="stroke: none; stroke-width: 1; stroke-dasharray: none; stroke-linecap: butt; stroke-linejoin: miter; stroke-miterlimit: 10; fill: rgb(248,218,127); fill-rule: nonzero; opacity: 1;" transform=" matrix(1 0 0 1 0 0) "/>
	<path d="M 66.105 61.89 h -21.49 c -0.552 0 -1 -0.447 -1 -1 s 0.448 -1 1 -1 h 20.49 v -35.07 H 20.263 v 3.517 c 0 0.552 -0.448 1 -1 1 s -1 -0.448 -1 -1 v -4.517 c 0 -0.552 0.448 -1 1 -1 h 46.842 c 0.553 0 1 0.448 1 1 v 37.07 C 67.105 61.442 66.658 61.89 66.105 61.89 z" style="stroke: none; stroke-width: 1; stroke-dasharray: none; stroke-linecap: butt; stroke-linejoin: miter; stroke-miterlimit: 10; fill: rgb(0,0,0); fill-rule: nonzero; opacity: 1;" transform=" matrix(1 0 0 1 0 0) " stroke-linecap="round"/>
	<path d="M 27.683 61.89 h -8.42 c -0.552 0 -1 -0.447 -1 -1 v -5.037 c 0 -0.553 0.448 -1 1 -1 s 1 0.447 1 1 v 4.037 h 7.42 c 0.552 0 1 0.447 1 1 S 28.235 61.89 27.683 61.89 z" style="stroke: none; stroke-width: 1; stroke-dasharray: none; stroke-linecap: butt; stroke-linejoin: miter; stroke-miterlimit: 10; fill: rgb(0,0,0); fill-rule: nonzero; opacity: 1;" transform=" matrix(1 0 0 1 0 0) " stroke-linecap="round"/>
	<path d="M 89 61.89 c -0.55 0 -0.996 -0.443 -1 -0.993 L 87.905 46.76 L 77.653 35.999 H 67.105 V 59.89 h 5.685 c 0.553 0 1 0.447 1 1 s -0.447 1 -1 1 h -6.685 c -0.553 0 -1 -0.447 -1 -1 V 34.999 c 0 -0.552 0.447 -1 1 -1 h 11.977 c 0.273 0 0.535 0.112 0.724 0.31 l 10.82 11.358 c 0.176 0.185 0.274 0.429 0.276 0.683 L 90 60.883 c 0.004 0.553 -0.441 1.003 -0.993 1.007 C 89.005 61.89 89.002 61.89 89 61.89 z" style="stroke: none; stroke-width: 1; stroke-dasharray: none; stroke-linecap: butt; stroke-linejoin: miter; stroke-miterlimit: 10; fill: rgb(0,0,0); fill-rule: nonzero; opacity: 1;" transform=" matrix(1 0 0 1 0 0) " stroke-linecap="round"/>
	<path d="M 80.892 47.356 h -8.465 c -0.553 0 -1 -0.447 -1 -1 V 34.999 c 0 -0.552 0.447 -1 1 -1 s 1 0.448 1 1 v 10.358 h 7.465 c 0.553 0 1 0.448 1 1 C 81.892 46.909 81.444 47.356 80.892 47.356 z" style="stroke: none; stroke-width: 1; stroke-dasharray: none; stroke-linecap: butt; stroke-linejoin: miter; stroke-miterlimit: 10; fill: rgb(0,0,0); fill-rule: nonzero; opacity: 1;" transform=" matrix(1 0 0 1 0 0) " stroke-linecap="round"/>
	<path d="M 32.975 67.181 c -3.469 0 -6.292 -2.822 -6.292 -6.291 s 2.822 -6.291 6.292 -6.291 c 3.469 0 6.291 2.822 6.291 6.291 S 36.443 67.181 32.975 67.181 z M 32.975 56.599 c -2.366 0 -4.292 1.925 -4.292 4.291 s 1.925 4.291 4.292 4.291 s 4.291 -1.925 4.291 -4.291 S 35.341 56.599 32.975 56.599 z" style="stroke: none; stroke-width: 1; stroke-dasharray: none; stroke-linecap: butt; stroke-linejoin: miter; stroke-miterlimit: 10; fill: rgb(0,0,0); fill-rule: nonzero; opacity: 1;" transform=" matrix(1 0 0 1 0 0) " stroke-linecap="round"/>
	<path d="M 78.082 67.181 c -3.47 0 -6.292 -2.822 -6.292 -6.291 s 2.822 -6.291 6.292 -6.291 c 3.469 0 6.291 2.822 6.291 6.291 S 81.551 67.181 78.082 67.181 z M 78.082 56.599 c -2.366 0 -4.292 1.925 -4.292 4.291 s 1.926 4.291 4.292 4.291 s 4.291 -1.925 4.291 -4.291 S 80.448 56.599 78.082 56.599 z" style="stroke: none; stroke-width: 1; stroke-dasharray: none; stroke-linecap: butt; stroke-linejoin: miter; stroke-miterlimit: 10; fill: rgb(0,0,0); fill-rule: nonzero; opacity: 1;" transform=" matrix(1 0 0 1 0 0) " stroke-linecap="round"/>
	<path d="M 42.684 43.354 H 1 c -0.552 0 -1 -0.448 -1 -1 s 0.448 -1 1 -1 h 41.684 c 0.552 0 1 0.448 1 1 S 43.236 43.354 42.684 43.354 z" style="stroke: none; stroke-width: 1; stroke-dasharray: none; stroke-linecap: butt; stroke-linejoin: miter; stroke-miterlimit: 10; fill: rgb(0,0,0); fill-rule: nonzero; opacity: 1;" transform=" matrix(1 0 0 1 0 0) " stroke-linecap="round"/>
	<path d="M 42.684 34.888 H 11.583 c -0.552 0 -1 -0.448 -1 -1 s 0.448 -1 1 -1 h 31.102 c 0.552 0 1 0.448 1 1 S 43.236 34.888 42.684 34.888 z" style="stroke: none; stroke-width: 1; stroke-dasharray: none; stroke-linecap: butt; stroke-linejoin: miter; stroke-miterlimit: 10; fill: rgb(0,0,0); fill-rule: nonzero; opacity: 1;" transform=" matrix(1 0 0 1 0 0) " stroke-linecap="round"/>
	<path d="M 42.684 51.82 H 11.583 c -0.552 0 -1 -0.447 -1 -1 s 0.448 -1 1 -1 h 31.102 c 0.552 0 1 0.447 1 1 S 43.236 51.82 42.684 51.82 z" style="stroke: none; stroke-width: 1; stroke-dasharray: none; stroke-linecap: butt; stroke-linejoin: miter; stroke-miterlimit: 10; fill: rgb(0,0,0); fill-rule: nonzero; opacity: 1;" transform=" matrix(1 0 0 1 0 0) " stroke-linecap="round"/>
</g>
</svg>