<svg width="193" height="120" viewBox="0 0 193 120" fill="none" xmlns="http://www.w3.org/2000/svg">
<path fill-rule="evenodd" clip-rule="evenodd" d="M104.481 37.6208C105.789 37.0497 107.619 36.1931 108.404 34.4798C108.665 33.9087 109.188 33.9087 109.45 34.4798C110.234 37.9064 110.496 41.0474 109.45 44.4739C108.404 47.3294 106.835 48.7572 104.481 50.1849C102.39 51.3271 100.559 51.6126 98.7287 53.6115C98.4672 53.897 97.9442 53.897 97.6827 53.3259C96.8983 49.6138 97.4212 43.9029 99.7746 40.7618C101.082 39.3341 102.651 38.4775 104.481 37.6208ZM108.404 51.8982C107.619 53.3259 105.789 54.1825 104.481 55.0392C102.651 55.8958 101.082 56.7525 99.7746 58.4658C97.6827 61.6068 96.8983 67.3177 97.6827 71.0298C97.9442 71.6009 98.2057 71.6009 98.7287 71.3154C100.298 69.3165 102.39 69.031 104.481 67.8888C106.835 66.4611 108.665 65.0333 109.45 62.1779C110.496 58.7513 110.234 55.6103 109.45 52.1837C109.188 51.3271 108.665 51.3271 108.404 51.8982ZM86.7001 37.6208C85.3927 37.0497 83.5623 35.9075 82.7778 34.4798C82.5163 33.9087 81.9933 33.9087 81.7318 34.4798C80.9474 37.9064 80.6859 41.0474 81.7318 44.4739C82.7778 47.3294 84.3467 48.7572 86.7001 50.1849C88.7921 51.3271 90.6225 51.6126 92.4529 53.6115C92.7144 53.897 93.2374 53.897 93.4989 53.3259C94.2834 49.6138 93.7604 43.9029 91.407 40.7618C90.0995 39.3341 88.2691 38.4775 86.7001 37.6208ZM86.7001 55.0392C85.3927 54.4681 83.5623 53.3259 82.7778 51.8982C82.5163 51.3271 81.9933 51.3271 81.7318 51.8982C80.9474 55.3247 80.6859 58.4658 81.7318 61.8923C82.7778 64.7478 84.3467 66.1755 86.7001 67.6033C88.7921 68.7454 90.6225 69.031 92.4529 71.0298C92.7144 71.3154 93.2374 71.3154 93.4989 70.7443C94.2834 67.0322 93.7604 61.3212 91.407 58.1802C90.0995 56.7525 88.2691 55.8958 86.7001 55.0392ZM107.881 28.1978V11.9216C107.881 9.35166 104.481 9.35166 104.481 11.9216V27.9122C104.481 30.7677 107.881 30.7677 107.881 28.1978ZM86.1772 28.1978V11.9216C86.1772 9.35166 82.7778 9.35166 82.7778 11.9216V27.9122C83.0393 30.7677 86.1772 30.7677 86.1772 28.1978ZM97.1597 14.4915V1.92744C97.1597 -0.642481 93.7604 -0.642481 93.7604 1.92744V14.4915C93.7604 17.0614 97.1597 17.0614 97.1597 14.4915ZM100.298 28.7689C100.298 27.6267 99.7746 26.1989 98.9902 25.0568C98.2057 23.629 97.1597 21.9157 96.1138 20.488C95.8523 20.2024 95.5908 20.2025 95.5908 20.2025C95.3293 20.2025 95.3293 20.2024 95.0678 20.488C93.7604 21.9157 92.9759 23.629 91.9299 25.0568C91.407 26.1989 90.884 27.3411 90.6225 28.7689C90.0995 32.481 92.7144 37.0497 94.8063 40.1907C95.0678 40.4763 95.3293 40.7618 95.5908 40.7618C95.8523 40.7618 96.1138 40.4763 96.3753 40.1907C98.2057 37.0497 101.082 32.481 100.298 28.7689Z" fill="white"/>
<path d="M47.9713 114.509C47.9713 114.247 47.9713 113.986 47.6858 113.986H46.8291C46.5436 113.986 46.5436 113.986 46.5436 114.247V114.509C45.4014 114.77 43.9736 115.293 43.9736 116.862C43.9736 118.169 44.8303 119.215 46.5436 119.215V119.477C46.5436 119.738 46.5436 119.738 46.8291 119.738H47.6858C47.9713 119.738 47.9713 119.738 47.9713 119.477V119.215C49.6846 118.954 50.5412 118.169 50.5412 116.862C50.5412 115.293 49.399 114.77 47.9713 114.509ZM46.8291 115.555V118.431C46.258 118.431 45.6869 117.908 45.6869 117.123C45.6869 116.078 46.258 115.555 46.8291 115.555ZM47.9713 118.431V115.555C48.5424 115.555 49.1135 116.078 49.1135 116.862C49.1135 117.908 48.5424 118.431 47.9713 118.431Z" fill="white"/>
<path d="M57.9695 114.509C57.9695 114.509 57.9695 114.247 57.9695 114.509L56.8273 114.247C56.8273 114.247 56.5418 114.247 56.5418 114.509L54.543 119.477V119.738H54.8285H55.6852C55.6852 119.738 55.9707 119.738 55.9707 119.477L56.5418 118.17H58.2551L58.8261 119.477L59.1117 119.738H59.9683H60.2539V119.477L57.9695 114.509ZM56.8273 117.124L57.3984 116.078L57.9695 117.124H56.8273Z" fill="white"/>
<path d="M68.2482 114.77C67.9627 114.509 67.1061 114.247 66.2494 114.247C65.6783 114.247 65.1072 114.247 64.8217 114.247C64.5361 114.247 64.5361 114.509 64.5361 114.509V119.216C64.5361 119.477 64.5361 119.477 64.8217 119.477H65.6783C65.9639 119.477 65.9639 119.477 65.9639 119.216V117.647C67.106 117.647 67.9627 117.385 68.2482 117.124C68.5338 116.862 68.8193 116.339 68.8193 115.816C68.8193 115.555 68.5338 115.032 68.2482 114.77ZM67.3916 116.078C67.3916 116.862 66.2494 116.862 65.6783 116.862V115.555C66.2494 115.293 67.3916 115.293 67.3916 116.078Z" fill="white"/>
<path d="M79.0994 114.247H77.9572C77.9572 114.247 77.6717 114.247 77.6717 114.509L76.5295 116.862C76.244 117.124 76.244 117.385 76.244 117.647C76.244 117.385 75.9584 117.124 75.9584 116.862L74.8162 114.509L74.5307 114.247H73.3885C73.1029 114.247 73.1029 114.247 73.1029 114.509L72.8174 119.477V119.738C72.8174 119.738 72.8174 119.738 73.1029 119.738H73.9596C74.2451 119.738 74.2451 119.738 74.2451 119.477L74.5307 117.385C74.5307 117.124 74.5307 116.862 74.5307 116.601C74.5307 116.862 74.5307 116.862 74.8162 117.124L75.6729 119.477L75.9584 119.738H76.5295C76.5295 119.738 76.8151 119.738 76.8151 119.477L77.9572 117.124C77.9572 116.862 78.2428 116.601 78.2428 116.601C78.2428 116.862 78.2428 117.124 78.2428 117.385H78.5283H78.2428L78.5283 119.477C78.5283 119.738 78.5283 119.738 78.8139 119.738H79.6705H79.9561C79.9561 119.738 79.9561 119.738 79.9561 119.477L79.6705 114.509C79.385 114.509 79.385 114.247 79.0994 114.247Z" fill="white"/>
<path d="M88.2352 118.693H85.9508V117.385H87.9497C88.2352 117.385 88.2352 117.385 88.2352 117.124V116.601C88.2352 116.339 88.2352 116.339 87.9497 116.339H85.9508V115.293H88.2352C88.5208 115.293 88.5208 115.293 88.5208 115.032V114.509C88.5208 114.247 88.5208 114.247 88.2352 114.247H85.0941C84.8086 114.247 84.8086 114.247 84.8086 114.509V119.477C84.8086 119.738 84.8086 119.738 85.0941 119.738H88.5208C88.8063 119.738 88.8063 119.738 88.8063 119.477V118.954C88.5208 118.693 88.5208 118.693 88.2352 118.693Z" fill="white"/>
<path d="M96.8019 114.77C96.5164 114.509 95.6597 114.247 94.8031 114.247C94.232 114.247 93.6609 114.247 93.3754 114.247C93.0899 114.247 93.0898 114.509 93.0898 114.509V119.216C93.0898 119.477 93.0899 119.477 93.3754 119.477H94.232C94.5176 119.477 94.5176 119.477 94.5176 119.216V117.647C95.6597 117.647 96.5164 117.385 96.8019 117.124C97.0874 116.862 97.373 116.339 97.373 115.816C97.373 115.555 97.0874 115.032 96.8019 114.77ZM95.9453 116.078C95.9453 116.862 94.8031 116.862 94.232 116.862V115.555C94.8031 115.293 95.9453 115.293 95.9453 116.078Z" fill="white"/>
<path d="M120.502 114.247H117.361C117.075 114.247 117.075 114.247 117.075 114.509V119.477C117.075 119.738 117.075 119.738 117.361 119.738H118.217C118.503 119.738 118.503 119.738 118.503 119.477V115.293H120.787C121.073 115.293 121.073 115.293 121.073 115.032V114.509C120.787 114.509 120.787 114.247 120.502 114.247Z" fill="white"/>
<path d="M128.782 114.77C128.497 114.509 127.64 114.247 126.784 114.247C126.213 114.247 125.641 114.247 125.356 114.247C125.07 114.247 125.07 114.509 125.07 114.509V119.216C125.07 119.477 125.07 119.477 125.356 119.477H126.212C126.498 119.477 126.498 119.477 126.498 119.216V117.647C127.355 117.647 128.497 117.385 128.782 117.124C129.068 116.862 129.354 116.339 129.354 115.816C129.354 115.555 129.068 115.032 128.782 114.77ZM127.926 116.078C127.926 116.862 126.784 116.862 126.212 116.862V115.555C126.784 115.293 127.926 115.293 127.926 116.078Z" fill="white"/>
<path d="M138.206 114.247H137.349C137.349 114.247 137.064 114.247 137.064 114.509L136.207 116.601V116.862C136.207 116.862 136.207 116.601 135.921 116.601L134.779 114.509L134.494 114.247H133.637C133.637 114.247 133.352 114.247 133.352 114.509V114.77L135.35 118.17C135.065 118.431 134.779 118.954 134.494 118.954H134.208H133.923C133.923 118.954 133.923 118.954 133.923 119.216V119.738C133.923 119.738 133.923 120 134.208 120C134.208 120 134.494 120 134.779 120C135.35 120 135.922 119.738 136.493 119.216C137.064 118.693 137.349 117.908 137.635 117.385L138.777 114.77C138.491 114.509 138.491 114.509 138.206 114.247Z" fill="white"/>
<path d="M147.345 114.247H142.777C142.491 114.247 142.491 114.247 142.491 114.509V119.477C142.491 119.738 142.491 119.738 142.777 119.738H143.633C143.919 119.738 143.919 119.738 143.919 119.477V115.293H146.203V119.477C146.203 119.738 146.203 119.738 146.489 119.738H147.345C147.631 119.738 147.631 119.738 147.631 119.477V114.509L147.345 114.247Z" fill="white"/>
<path d="M105.371 116.862C105.942 116.601 106.228 116.339 106.228 115.816C106.228 114.77 105.085 114.247 104.229 114.247C103.658 114.247 102.801 114.509 102.23 114.77V115.032L102.515 115.555C102.515 115.555 102.515 115.555 102.801 115.555C103.087 115.293 103.658 115.293 103.943 115.293C104.229 115.293 104.8 115.555 104.8 115.816C104.8 116.078 104.229 116.339 103.658 116.339H103.087C103.087 116.339 102.801 116.339 102.801 116.601V117.124C102.801 117.124 102.801 117.385 103.087 117.385H103.658C104.514 117.385 105.085 117.647 105.085 118.17C105.085 118.693 104.514 118.954 103.943 118.954C103.372 118.954 103.087 118.954 102.515 118.693C102.515 118.693 102.515 118.693 102.23 118.693L101.944 119.216V119.477C102.515 119.738 103.087 120 103.943 120C105.085 120 106.513 119.477 106.513 118.431C106.513 117.647 105.942 117.124 105.371 116.862Z" fill="white"/>
<path fill-rule="evenodd" clip-rule="evenodd" d="M18.5636 95.1584C18.278 97.5118 18.8491 100.127 20.2769 102.219C21.1335 103.526 22.5612 104.572 23.989 105.357C26.8445 106.664 30.271 106.402 33.1265 105.095C34.8398 104.311 36.2675 102.742 37.1242 100.911C38.5519 97.7733 38.2664 93.5895 36.2675 90.9746C34.2687 88.3597 30.8421 86.7907 27.4155 87.0522C22.5612 87.5752 19.1347 90.9746 18.5636 95.1584ZM24.8456 101.696C23.1323 100.388 22.2757 98.0348 22.5612 95.9429C22.8468 93.0665 24.8456 90.4516 27.9866 90.1901C31.4132 90.1901 33.4121 93.0665 33.6976 95.9429C33.6976 97.2503 33.6976 98.8193 32.841 100.127C31.4132 103.003 27.4156 103.526 24.8456 101.696Z" fill="white"/>
<path fill-rule="evenodd" clip-rule="evenodd" d="M74.2441 87.3137V88.3597C74.2441 89.9286 73.3874 90.4516 71.9597 90.4516H68.2476C68.2476 96.2044 68.2476 95.1584 68.2476 106.141H66.5343C65.1065 106.141 63.9643 105.095 63.9643 103.788C63.9643 99.3423 63.9643 94.8969 63.9643 90.4516H57.9678V89.4056C57.9678 88.0982 59.11 87.3137 60.5377 87.3137" fill="white"/>
<path fill-rule="evenodd" clip-rule="evenodd" d="M156.196 87.3137V88.3597C156.196 89.9286 155.34 90.4516 153.912 90.4516H150.2C150.2 96.2044 150.2 95.1584 150.2 106.141H148.486C147.059 106.141 145.916 105.095 145.916 103.788C145.916 99.3423 145.916 94.8969 145.916 90.4516H139.92V89.4056C139.92 88.0982 141.062 87.3137 142.204 87.3137" fill="white"/>
<path fill-rule="evenodd" clip-rule="evenodd" d="M4.28321 103.526C4.28321 104.834 3.14102 105.88 1.71328 105.88H0V89.6671C0 88.3597 1.14219 87.3137 2.56992 87.3137H4.28321V94.6354L10.8508 88.3597C11.4219 87.8367 12.2785 87.3137 13.1352 87.3137H17.1328L9.42305 94.6354L17.9895 105.88H14.2774C13.1352 105.88 12.2785 105.357 11.4219 104.572L6.28204 97.5118L4.28321 99.6038" fill="white"/>
<path fill-rule="evenodd" clip-rule="evenodd" d="M169.046 104.572L164.763 94.6354L162.479 100.127H166.191V100.911C166.191 102.219 165.049 103.265 163.621 103.265H161.051L160.48 104.572C160.194 105.618 159.052 106.141 157.91 106.141H155.055L162.479 88.8827C162.764 87.8367 163.907 87.3137 165.049 87.3137H165.905L173.901 106.141H171.616C170.474 105.88 169.618 105.357 169.046 104.572Z" fill="white"/>
<path fill-rule="evenodd" clip-rule="evenodd" d="M81.0967 103.526C81.0967 104.834 79.9545 105.88 78.5268 105.88H76.8135V89.6671C76.8135 88.3597 77.9557 87.3137 79.3834 87.3137H81.0967" fill="white"/>
<path fill-rule="evenodd" clip-rule="evenodd" d="M43.9766 103.787C43.9766 105.095 42.8344 106.141 41.4066 106.141H39.6934V89.4053C39.6934 88.0978 40.8355 87.0519 42.2633 87.0519H43.9766V94.8966C45.4043 94.8966 49.6875 94.8966 51.6863 94.8966V89.6668C51.6863 88.3593 52.8285 87.3134 54.2562 87.3134H55.9695V103.787C55.9695 105.095 54.8273 106.141 53.3996 106.141H51.6863V97.773C49.6875 97.773 45.4043 97.773 43.9766 98.0345" fill="white"/>
<path fill-rule="evenodd" clip-rule="evenodd" d="M89.0918 103.787C89.0918 105.095 87.9496 106.141 86.5219 106.141H84.8086V89.4053C84.8086 88.0978 85.9508 87.0519 87.3785 87.0519H89.0918V94.8966C90.5196 94.8966 94.8028 94.8966 96.8016 94.8966V89.6668C96.8016 88.3593 97.9438 87.3134 99.3716 87.3134H101.085V103.787C101.085 105.095 99.9426 106.141 98.5149 106.141H96.8016V97.773C94.8028 97.773 90.5196 97.773 89.0918 98.0345" fill="white"/>
<path fill-rule="evenodd" clip-rule="evenodd" d="M125.356 103.787C125.356 105.095 124.214 106.141 122.787 106.141H121.073V89.4053C121.073 88.0978 122.215 87.0519 123.643 87.0519H125.356V94.8966C126.784 94.8966 131.067 94.8966 133.066 94.8966V89.6668C133.066 88.3593 134.208 87.3134 135.636 87.3134H137.064V103.787C137.064 105.095 135.922 106.141 134.494 106.141H132.781V97.773C130.782 97.773 126.499 97.773 125.071 98.0345" fill="white"/>
<path fill-rule="evenodd" clip-rule="evenodd" d="M179.612 89.9286C179.041 90.9746 178.755 92.0205 178.47 93.5895C177.042 103.265 174.758 105.88 174.758 105.88H178.184C180.469 105.88 181.897 99.8652 182.468 93.851C182.753 90.9746 185.894 90.7131 188.179 90.7131V103.265C188.179 104.572 189.321 105.88 190.749 105.88H192.176V87.3137C188.75 87.3137 181.325 87.3137 179.612 89.9286Z" fill="white"/>
<path fill-rule="evenodd" clip-rule="evenodd" d="M116.22 102.741C115.648 102.741 114.506 102.741 113.65 102.741C112.222 102.741 109.081 102.741 108.224 102.48C108.224 100.126 108.224 98.5574 108.224 97.5115H112.507C113.935 97.5115 115.077 96.4655 115.077 95.1581V94.3736L108.51 94.6351V90.7127C109.366 90.4512 112.507 90.7127 113.935 90.4512C114.792 90.4512 115.934 90.4512 116.505 90.4512C117.933 90.4512 118.789 89.6668 118.789 88.0978V87.0519H108.51C108.224 87.0519 107.939 87.0519 107.939 87.0519H106.796C105.369 87.0519 104.227 88.0978 104.227 89.4053V89.6668V90.7127C104.227 90.9742 104.227 90.9742 104.227 91.2357V91.4972C104.227 94.1121 104.227 95.9425 104.227 98.0345V98.2959V103.526C104.227 104.833 105.369 105.879 106.796 105.879H107.939C108.224 105.879 108.51 105.879 108.51 105.879H118.789V105.095C118.504 103.526 117.647 102.741 116.22 102.741Z" fill="white"/>
</svg>
